<svg id="Group_4" data-name="Group 4" xmlns="http://www.w3.org/2000/svg" xmlns:xlink="http://www.w3.org/1999/xlink" width="86.038" height="24.338" viewBox="0 0 86.038 24.338">
  <defs>
    <clipPath id="clip-path">
      <rect id="Rectangle_2" data-name="Rectangle 2" width="86.038" height="24.338" fill="#041d53"/>
    </clipPath>
  </defs>
  <g id="Group_3" data-name="Group 3" transform="translate(0 0)" clip-path="url(#clip-path)">
    <path id="Path_17" data-name="Path 17" d="M19.837,1.807c0-.547-.006-1.638-.006-1.638h5.138s.055,1.366.055,1.638V22.46c0,.272,0,1.638,0,1.638H19.876s-.039-1.091-.039-1.638V13.907H5.19V22.46c0,.272.018,1.638.018,1.638H0s0-1.091,0-1.638V1.807C0,1.26,0,.169,0,.169H5.19V9.541H19.837Z" transform="translate(0 0.104)" fill="#041d53"/>
    <path id="Path_18" data-name="Path 18" d="M44.88,24.338a15.182,15.182,0,0,1-2.934-.252,8.994,8.994,0,0,1-2.183-.7,7.33,7.33,0,0,1-1.591-1.024A14.558,14.558,0,0,1,36.965,21.2a23.143,23.143,0,0,1-2.025,1.524,10.525,10.525,0,0,1-1.91,1,7.822,7.822,0,0,1-2.093.5,25.612,25.612,0,0,1-2.57.114,16.052,16.052,0,0,1-3.344-.364,9.551,9.551,0,0,1-3.094-1.229,7.467,7.467,0,0,1-2.3-2.23,5.766,5.766,0,0,1-.909-3.274,6.6,6.6,0,0,1,.479-2.617A6.121,6.121,0,0,1,20.5,12.691a7.044,7.044,0,0,1,1.957-1.364,14.645,14.645,0,0,1,2.457-.911v-.09a5.411,5.411,0,0,1-2.434-1.615A3.963,3.963,0,0,1,21.453,6,4.723,4.723,0,0,1,22.2,3.3a6.567,6.567,0,0,1,1.91-1.865A8.154,8.154,0,0,1,26.752.342a12.477,12.477,0,0,1,5.8,0,8.165,8.165,0,0,1,2.615,1.091A6.567,6.567,0,0,1,37.078,3.3,4.723,4.723,0,0,1,37.83,6a4.4,4.4,0,0,1-.887,2.754,4.268,4.268,0,0,1-1.935,1.524,3.463,3.463,0,0,1,.956.977A10.77,10.77,0,0,1,36.6,12.4c.182.379.348.743.5,1.091a2.647,2.647,0,0,0,.545.842,13.313,13.313,0,0,1,1.591-2.275,19.544,19.544,0,0,1,1.82-1.843,14.314,14.314,0,0,1,1.661-1.274,4.477,4.477,0,0,1,1.116-.568,2.772,2.772,0,0,0,.41-.2.342.342,0,0,0,.181-.3h.455v7.007h-.455a3.8,3.8,0,0,0-.3-.638.743.743,0,0,0-.7-.363,1.541,1.541,0,0,0-1.046.455,5.155,5.155,0,0,0-.911,1.114,12.642,12.642,0,0,0-.727,1.343,8.863,8.863,0,0,0-.456,1.137A7.821,7.821,0,0,0,41.81,19.4a3.142,3.142,0,0,0,1.661.7c.424,0,.688-.135.8-.41a2.515,2.515,0,0,0,.158-.909h.455ZM23.727,16.6a3.679,3.679,0,0,0,.5,1.956,3.9,3.9,0,0,0,1.32,1.319,6.018,6.018,0,0,0,1.8.729,8.512,8.512,0,0,0,1.933.227,5.231,5.231,0,0,0,1.752-.3,6.8,6.8,0,0,0,1.524-.75,4.532,4.532,0,0,0,1.114-1.024,2.543,2.543,0,0,0,.522-1.161,7.343,7.343,0,0,1-1-1.886,10.936,10.936,0,0,0-.729-1.685,3.332,3.332,0,0,0-1.091-1.2,3.828,3.828,0,0,0-2.093-.455,8.512,8.512,0,0,0-1.933.227,6.015,6.015,0,0,0-1.8.727,4,4,0,0,0-1.32,1.3,3.657,3.657,0,0,0-.5,1.98M29.641,3.366a4.74,4.74,0,0,0-2.707.75A2.627,2.627,0,0,0,25.82,6.46,2.625,2.625,0,0,0,26.934,8.8a5.262,5.262,0,0,0,5.414,0A2.629,2.629,0,0,0,33.462,6.46a2.63,2.63,0,0,0-1.114-2.344,4.74,4.74,0,0,0-2.707-.75" transform="translate(11.463 0.001)" fill="#041d53"/>
    <path id="Path_19" data-name="Path 19" d="M51.182.169A23.541,23.541,0,0,1,55.23.511,12.5,12.5,0,0,1,58.687,1.6,6.741,6.741,0,0,1,61.1,3.56a4.8,4.8,0,0,1,.909,2.979,4.157,4.157,0,0,1-1.319,3.3,9.39,9.39,0,0,1-3.139,1.8v.09a8.91,8.91,0,0,1,3.616,2.025,5.2,5.2,0,0,1,1.478,3.981,5.472,5.472,0,0,1-.592,2.525A5.8,5.8,0,0,1,60.3,22.277a8.684,8.684,0,0,1-2.844,1.343,14.039,14.039,0,0,1-3.819.477H38.21s.006-1.091.006-1.638V1.807c0-.547,0-1.638,0-1.638Zm.909,9.372a9.388,9.388,0,0,0,3.389-.524,2.119,2.119,0,0,0,1.343-2.206A2.122,2.122,0,0,0,55.48,4.6a9.426,9.426,0,0,0-3.389-.522H43.4V9.541Zm0,10.371a7.307,7.307,0,0,0,4.118-.887,2.821,2.821,0,0,0,0-4.685,7.305,7.305,0,0,0-4.118-.888H43.4v6.46Z" transform="translate(23.393 0.104)" fill="#041d53"/>
  </g>
</svg>
