<svg xmlns="http://www.w3.org/2000/svg" xmlns:xlink="http://www.w3.org/1999/xlink" width="182.069" height="10.159" viewBox="0 0 182.069 10.159">
  <defs>
    <clipPath id="clip-path">
      <rect id="Rectangle_1" data-name="Rectangle 1" width="182.069" height="10.159" fill="none"/>
    </clipPath>
  </defs>
  <g id="Group_39" data-name="Group 39" transform="translate(0 0)">
    <g id="Group_1" data-name="Group 1" transform="translate(0 0)" clip-path="url(#clip-path)">
      <path id="Path_1" data-name="Path 1" d="M7.609,2.129c0-.21,0-.628,0-.628H9.577s.021.524.021.628v7.922c0,.1,0,.628,0,.628H7.624s-.015-.419-.015-.628V6.77H1.991v3.281c0,.1.007.628.007.628H0s0-.419,0-.628V2.129C0,1.92,0,1.5,0,1.5H1.991V5.1H7.609Z" transform="translate(0 -0.573)" fill="#fff"/>
      <path id="Path_2" data-name="Path 2" d="M77.032,1.5a9.03,9.03,0,0,1,1.553.131,4.8,4.8,0,0,1,1.326.419,2.586,2.586,0,0,1,.925.751,1.842,1.842,0,0,1,.349,1.143,1.6,1.6,0,0,1-.506,1.265,3.6,3.6,0,0,1-1.2.69v.035a3.418,3.418,0,0,1,1.387.777,1.994,1.994,0,0,1,.567,1.527,2.1,2.1,0,0,1-.227.968,2.233,2.233,0,0,1-.672.776,3.331,3.331,0,0,1-1.091.515,5.386,5.386,0,0,1-1.466.183H72.056s0-.419,0-.628V2.129c0-.21,0-.628,0-.628ZM77.38,5.1a3.6,3.6,0,0,0,1.3-.2.813.813,0,0,0,.515-.846A.814.814,0,0,0,78.68,3.2a3.616,3.616,0,0,0-1.3-.2H74.048V5.1Zm0,3.978a2.8,2.8,0,0,0,1.579-.34,1.082,1.082,0,0,0,0-1.8A2.8,2.8,0,0,0,77.38,6.6H74.048V9.074Z" transform="translate(-27.496 -0.573)" fill="#fff"/>
      <path id="Path_3" data-name="Path 3" d="M102.876,3H97.222V5.166h3.42a1.24,1.24,0,0,0,.541-.1q.192-.1.192-.5h.314V7.295h-.314c0-.267-.064-.439-.192-.515a1.073,1.073,0,0,0-.541-.114h-3.42V9.074h5.828c.174,0,.908.01.908.01v1.61s-.733-.014-.908-.014H95.231s0-.523,0-.628V2.13c0-.1,0-.628,0-.628h8.622V2.994S103.12,3,102.876,3" transform="translate(-36.34 -0.573)" fill="#fff"/>
      <path id="Path_4" data-name="Path 4" d="M122.657,1.5a7.177,7.177,0,0,1,1.518.148,3.426,3.426,0,0,1,1.169.471,2.178,2.178,0,0,1,.751.837,2.784,2.784,0,0,1,.261,1.265,2.244,2.244,0,0,1-.68,1.762,3.656,3.656,0,0,1-1.832.82l2.321,3.315c.082.117.414.558.414.558h-2.26s-.463-.631-.509-.706-.116-.177-.209-.305l-1.92-2.722h-2.5v3.106c0,.1.009.628.009.628h-2s0-.419,0-.628V2.13c0-.209,0-.628,0-.628ZM122.2,5.585a4.769,4.769,0,0,0,1.047-.1,1.843,1.843,0,0,0,.663-.27,1.008,1.008,0,0,0,.349-.411,1.311,1.311,0,0,0,0-1.029,1.007,1.007,0,0,0-.349-.41,1.854,1.854,0,0,0-.663-.271A4.808,4.808,0,0,0,122.2,3h-3.019V5.585Z" transform="translate(-44.721 -0.573)" fill="#fff"/>
      <path id="Path_5" data-name="Path 5" d="M144.228,10.049v.628h-1.988s0-.524,0-.628V3.1h-3.646V1.5l8.515,0,.756-.006.011,1.607-.767,0h-2.879Z" transform="translate(-52.886 -0.57)" fill="#fff"/>
      <path id="Path_6" data-name="Path 6" d="M179.827,10.667a5.823,5.823,0,0,1-1.125-.1,3.45,3.45,0,0,1-.837-.27,2.811,2.811,0,0,1-.61-.393,5.585,5.585,0,0,1-.463-.445,8.873,8.873,0,0,1-.777.584,4.037,4.037,0,0,1-.733.384,3,3,0,0,1-.8.192,9.824,9.824,0,0,1-.986.044,6.157,6.157,0,0,1-1.283-.14,3.663,3.663,0,0,1-1.187-.471,2.864,2.864,0,0,1-.881-.855,2.212,2.212,0,0,1-.349-1.256,2.531,2.531,0,0,1,.184-1,2.348,2.348,0,0,1,.5-.741,2.7,2.7,0,0,1,.751-.523,5.638,5.638,0,0,1,.942-.349V5.293a2.075,2.075,0,0,1-.934-.62,1.52,1.52,0,0,1-.393-1.038,1.811,1.811,0,0,1,.288-1.038,2.519,2.519,0,0,1,.733-.715,3.128,3.128,0,0,1,1.012-.419,4.786,4.786,0,0,1,2.225,0,3.132,3.132,0,0,1,1,.419,2.519,2.519,0,0,1,.733.715,1.811,1.811,0,0,1,.288,1.038,1.688,1.688,0,0,1-.34,1.056,1.637,1.637,0,0,1-.742.584,1.329,1.329,0,0,1,.367.375,4.134,4.134,0,0,1,.244.437c.07.145.134.285.192.419a1.015,1.015,0,0,0,.209.323,5.107,5.107,0,0,1,.61-.873,7.5,7.5,0,0,1,.7-.707A5.492,5.492,0,0,1,179,4.76a1.717,1.717,0,0,1,.428-.218,1.063,1.063,0,0,0,.157-.079.131.131,0,0,0,.069-.114h.174V7.038h-.174a1.456,1.456,0,0,0-.113-.245.285.285,0,0,0-.27-.139.591.591,0,0,0-.4.174,1.977,1.977,0,0,0-.349.427,4.846,4.846,0,0,0-.279.515,3.4,3.4,0,0,0-.175.436,3,3,0,0,0,.585.567,1.205,1.205,0,0,0,.637.27c.163,0,.264-.052.305-.157a.965.965,0,0,0,.061-.349h.174ZM171.714,7.7a1.411,1.411,0,0,0,.192.75,1.5,1.5,0,0,0,.506.506,2.308,2.308,0,0,0,.689.28,3.265,3.265,0,0,0,.741.087,2,2,0,0,0,.672-.114,2.61,2.61,0,0,0,.584-.288,1.739,1.739,0,0,0,.427-.393.975.975,0,0,0,.2-.445,2.817,2.817,0,0,1-.383-.724,4.2,4.2,0,0,0-.28-.646,1.278,1.278,0,0,0-.419-.462,1.468,1.468,0,0,0-.8-.174,3.265,3.265,0,0,0-.741.087,2.307,2.307,0,0,0-.689.279,1.533,1.533,0,0,0-.506.5,1.4,1.4,0,0,0-.192.759m2.268-5.078a1.818,1.818,0,0,0-1.038.288,1.007,1.007,0,0,0-.427.9,1.007,1.007,0,0,0,.427.9,2.018,2.018,0,0,0,2.077,0,1.008,1.008,0,0,0,.427-.9,1.009,1.009,0,0,0-.427-.9,1.818,1.818,0,0,0-1.038-.288" transform="translate(-64.792 -0.508)" fill="#fff"/>
      <path id="Path_7" data-name="Path 7" d="M226.86,10.366a.509.509,0,0,0,.357-.227,3.711,3.711,0,0,0,.253-.436L230.7,2.915c.082-.151.154-.291.218-.419a.772.772,0,0,0,.1-.331.257.257,0,0,0-.122-.244,1.03,1.03,0,0,0-.262-.105V1.5h2.949v.314a1.458,1.458,0,0,0-.244.1.256.256,0,0,0-.122.254.689.689,0,0,0,.061.279q.061.14.183.366l3.629,7.1a.6.6,0,0,0,.236.279,3.665,3.665,0,0,0,.34.174v.314h-3.07v-.314a.41.41,0,0,0,.174-.053.167.167,0,0,0,.1-.157,1.094,1.094,0,0,0-.14-.453l-.663-1.291h-4.258L229.18,9.65a1.468,1.468,0,0,0-.174.524q0,.192.331.192v.314H226.86Zm6.578-3.245-1.466-3.245L230.332,7.12Z" transform="translate(-86.568 -0.573)" fill="#fff"/>
      <path id="Path_8" data-name="Path 8" d="M258.521,10.679h-7.78s0-.419,0-.628V2.129c0-.21,0-.628,0-.628h2s-.006.419-.006.628V9.074h5.793c.174,0,.907.01.907.01v1.61s-.733-.014-.907-.014" transform="translate(-95.68 -0.573)" fill="#fff"/>
      <path id="Path_9" data-name="Path 9" d="M281.729,3.555V0h.74V2.911h1.5v.644Z" transform="translate(-107.506 0)" fill="#fff"/>
      <path id="Path_10" data-name="Path 10" d="M285.95,3.555V0h.74V2.911h1.5v.644Z" transform="translate(-109.117 0)" fill="#fff"/>
      <path id="Path_11" data-name="Path 11" d="M290.172,3.556V0h1.365a1.557,1.557,0,0,1,.651.129,1.014,1.014,0,0,1,.447.382,1.141,1.141,0,0,1,.162.625,1.1,1.1,0,0,1-.164.615,1.05,1.05,0,0,1-.448.385,1.531,1.531,0,0,1-.647.131h-.625V3.556Zm.74-1.933h.631a.566.566,0,0,0,.272-.062.454.454,0,0,0,.178-.172.493.493,0,0,0,.064-.253.5.5,0,0,0-.064-.258.454.454,0,0,0-.178-.172.566.566,0,0,0-.272-.062h-.631Z" transform="translate(-110.728 0)" fill="#fff"/>
      <path id="Path_12" data-name="Path 12" d="M32.155,3H26.5V5.166h3.42a1.24,1.24,0,0,0,.541-.1q.192-.1.192-.5h.314V7.295h-.314c0-.267-.064-.439-.192-.515a1.073,1.073,0,0,0-.541-.114H26.5V9.074h5.828c.174,0,.908.01.908.01v1.61s-.733-.014-.908-.014H24.51s0-.523,0-.628V2.13c0-.1,0-.628,0-.628h8.622V2.994S32.4,3,32.155,3" transform="translate(-9.353 -0.573)" fill="#fff"/>
      <path id="Path_13" data-name="Path 13" d="M52.936,1.5a7.177,7.177,0,0,1,1.518.148,3.426,3.426,0,0,1,1.169.471,2.178,2.178,0,0,1,.751.837,2.784,2.784,0,0,1,.261,1.265,2.244,2.244,0,0,1-.68,1.762,3.656,3.656,0,0,1-1.832.82l2.321,3.315c.082.117.414.558.414.558H54.6s-.463-.631-.509-.706-.116-.177-.209-.305l-1.92-2.722h-2.5v3.106c0,.1.009.628.009.628h-2s0-.419,0-.628V2.13c0-.209,0-.628,0-.628Zm-.454,4.083a4.769,4.769,0,0,0,1.047-.1,1.843,1.843,0,0,0,.663-.27,1.008,1.008,0,0,0,.349-.411,1.312,1.312,0,0,0,0-1.029,1.007,1.007,0,0,0-.349-.41,1.854,1.854,0,0,0-.663-.271A4.808,4.808,0,0,0,52.482,3H49.463V5.585Z" transform="translate(-18.116 -0.573)" fill="#fff"/>
      <path id="Path_14" data-name="Path 14" d="M210.951,1.5a9.03,9.03,0,0,1,1.553.131,4.8,4.8,0,0,1,1.326.419,2.586,2.586,0,0,1,.925.751,1.842,1.842,0,0,1,.349,1.143,1.6,1.6,0,0,1-.506,1.265,3.6,3.6,0,0,1-1.2.69v.035a3.418,3.418,0,0,1,1.387.777,1.994,1.994,0,0,1,.567,1.527,2.1,2.1,0,0,1-.227.968,2.226,2.226,0,0,1-.672.776,3.331,3.331,0,0,1-1.091.515,5.385,5.385,0,0,1-1.465.183h-5.918s0-.419,0-.628V2.129c0-.21,0-.628,0-.628ZM211.3,5.1a3.6,3.6,0,0,0,1.3-.2.813.813,0,0,0,.515-.846A.814.814,0,0,0,212.6,3.2a3.616,3.616,0,0,0-1.3-.2h-3.333V5.1Zm0,3.978a2.8,2.8,0,0,0,1.579-.34,1.082,1.082,0,0,0,0-1.8A2.8,2.8,0,0,0,211.3,6.6h-3.333V9.074Z" transform="translate(-78.599 -0.573)" fill="#fff"/>
      <path id="Path_15" data-name="Path 15" d="M278.69,10.679h-7.78s0-.419,0-.628V1.5h2s-.006.419-.006.628V9.074h5.793c.174,0,.907.01.907.01v1.61s-.733-.014-.907-.014" transform="translate(-103.376 -0.573)" fill="#fff"/>
    </g>
  </g>
</svg>
